HIERARCHY
ROOT hip
{
	OFFSET 0.000000 0.000000 0.000000 
	CHANNELS 6 Xposition Yposition Zposition Xrotation Zrotation Yrotation
	JOINT abdomen
	{
		OFFSET 0.000000 3.402643 0.000000 
		CHANNELS 3 Xrotation Zrotation Yrotation
		JOINT chest
		{
			OFFSET 0.000000 8.438565 -0.680529 
			CHANNELS 3 Xrotation Zrotation Yrotation
			JOINT neck
			{
				OFFSET 0.000000 10.207942 -0.272212 
				CHANNELS 3 Xrotation Zrotation Yrotation
				JOINT head
				{
					OFFSET 0.000000 3.130431 0.000000 
					CHANNELS 3 Xrotation Zrotation Yrotation
					End Site
					{
						OFFSET 0.000000 3.130435 0.000000 
					}
				}
			}
			JOINT lCollar
			{
				OFFSET 3.470700 6.669187 -0.816635 
				CHANNELS 3 Yrotation Zrotation Xrotation
				JOINT lShldr
				{
					OFFSET 3.198488 0.000000 0.000000 
					CHANNELS 3 Zrotation Yrotation Xrotation
					JOINT lForeArm
					{
						OFFSET 10.139888 0.000000 0.000000 
						CHANNELS 3 Yrotation Zrotation Xrotation
						JOINT lHand
						{
							OFFSET 8.370511 0.000000 0.000000 
							CHANNELS 3 Zrotation Yrotation Xrotation
							End Site
							{
								OFFSET 4.083176 0.000000 0.000000 
							}
						}
					}
				}
			}
			JOINT rCollar
			{
				OFFSET -3.470700 6.669187 -0.816635 
				CHANNELS 3 Yrotation Zrotation Xrotation
				JOINT rShldr
				{
					OFFSET -3.198488 0.000000 0.000000 
					CHANNELS 3 Zrotation Yrotation Xrotation
					JOINT rForeArm
					{
						OFFSET -10.139888 0.000000 0.000000 
						CHANNELS 3 Yrotation Zrotation Xrotation
						JOINT rHand
						{
							OFFSET -8.370511 0.000000 0.000000 
							CHANNELS 3 Zrotation Yrotation Xrotation
							End Site
							{
								OFFSET -4.083176 0.000000 0.000000 
							}
						}
					}
				}
			}
		}
	}
	JOINT lThigh
	{
		OFFSET 5.308129 -1.633274 1.361059 
		CHANNELS 3 Xrotation Zrotation Yrotation
		JOINT lShin
		{
			OFFSET -2.041588 -20.007561 0.000000 
			CHANNELS 3 Xrotation Zrotation Yrotation
			JOINT lFoot
			{
				OFFSET 0.000000 -19.190928 -1.224953 
				CHANNELS 3 Xrotation Yrotation Zrotation
				End Site
				{
					OFFSET 0.000000 -2.449906 4.627600 
				}
			}
		}
	}
	JOINT rThigh
	{
		OFFSET -5.308129 -1.633274 1.361059 
		CHANNELS 3 Xrotation Zrotation Yrotation
		JOINT rShin
		{
			OFFSET 2.041588 -20.007561 0.000000 
			CHANNELS 3 Xrotation Zrotation Yrotation
			JOINT rFoot
			{
				OFFSET 0.000000 -19.190928 -1.224953 
				CHANNELS 3 Xrotation Yrotation Zrotation
				End Site
				{
					OFFSET 0.000000 -2.449906 4.627600 
				}
			}
		}
	}
}
MOTION
Frames: 19
Frame Time: 0.016667
-2.534175 52.584095 -2.996018 -14.572651 2.947136 16.047310 38.373409 -4.814943 -1.929058 2.368713 0.917312 3.349956 -15.341776 1.779298 -0.446861 3.269228 6.762861 -22.872890 -6.752428 -7.463228 -0.384889 -63.168083 7.683167 -18.152864 -21.256899 -5.000000 41.407787 -6.410654 3.013588 31.904507 14.899077 13.468049 -0.717229 56.494255 0.070883 -8.489348 28.583481 5.000000 35.215767 26.635677 -9.890361 1.401896 -4.479947 19.956146 -9.715373 33.074783 -8.735999 -6.310813 -6.005661 1.731535 -17.196503 5.995467 -12.255760 -19.653505 38.264870 4.155811 3.576538 -14.210295 -16.638321 8.059443 
-2.810175 52.373138 -3.224410 -14.934805 2.956279 16.683168 39.203156 -4.629077 -2.035674 2.487078 0.907493 3.515959 -15.498405 1.787491 -0.458276 2.440657 7.315205 -25.949287 -7.223632 -7.814315 -0.402995 -63.623402 7.546824 -18.737270 -18.583447 -5.000000 44.727287 -7.213600 6.656015 32.860779 15.005871 13.419271 -0.714702 55.890781 0.551564 -8.175707 29.461672 5.000000 34.741253 26.270464 -10.439415 3.078464 -5.904706 20.091202 -10.295287 34.999233 -8.390218 -6.445528 -6.382478 1.696712 -17.291325 4.891916 -12.567465 -21.298677 41.016647 3.979792 3.809957 -14.304682 -15.829188 7.611402 
-3.108051 52.158394 -3.452800 -15.467402 2.791848 16.407150 39.977703 -4.471133 -2.247239 2.662620 0.917276 3.447606 -15.558101 1.882582 -0.482534 1.879747 7.877966 -28.703194 -7.968756 -8.214162 -0.424992 -64.381439 7.867103 -20.201982 -15.502465 -5.000000 45.000000 -9.172457 9.994939 33.210884 14.852274 13.624086 -0.725299 55.155975 2.116542 -6.608624 29.980635 5.000000 33.862007 26.392368 -11.198675 5.250662 -6.734924 20.444012 -10.251911 36.759026 -7.915913 -6.502101 -6.870284 1.797722 -17.427635 3.709030 -12.800476 -22.279926 43.520359 3.813847 3.943419 -14.380504 -15.011956 7.323167 
-3.420515 51.941113 -3.681177 -16.111664 2.503025 15.523352 40.696587 -4.339503 -2.532631 2.875988 0.936876 3.232781 -15.560298 2.053453 -0.528122 1.511835 8.448345 -31.225513 -8.899734 -8.633512 -0.446647 -65.359192 8.479486 -22.260590 -12.247616 -5.000000 45.000000 -11.981226 13.130782 33.051891 14.525159 13.994708 -0.746815 54.401588 4.429829 -4.246137 30.238003 5.000000 32.708611 26.820673 -12.163119 7.750355 -7.183378 20.920780 -9.846102 38.408531 -7.414146 -6.386734 -7.268891 2.120929 -17.460625 2.460630 -12.920485 -22.864220 45.845871 3.624748 4.038761 -14.418435 -14.321289 7.049901 
-3.736462 51.724152 -3.909230 -16.778502 2.186433 14.258691 41.325413 -4.323516 -2.905137 3.049059 0.946742 2.939839 -15.339261 2.340184 -0.591218 1.350847 9.059726 -33.776524 -10.074696 -9.013851 -0.466267 -66.516792 9.335445 -24.822756 -9.076105 -5.000000 45.000000 -14.799147 15.831028 32.514740 14.188152 14.345829 -0.764991 53.977077 7.056599 -1.468479 30.109524 5.000000 31.542772 27.194054 -12.801675 9.931783 -7.367609 21.426701 -9.166221 39.984447 -6.870516 -6.321377 -7.705387 2.617364 -17.597149 1.159015 -13.079312 -23.169321 48.095993 3.471974 4.186440 -14.373744 -13.606735 6.788131 
-4.066349 51.508469 -4.136008 -17.549498 1.790215 11.392376 41.574905 -4.827519 -3.661831 3.089529 0.898140 2.304965 -14.245411 3.140092 -0.722486 2.088092 9.923791 -36.350735 -12.263915 -9.218650 -0.476823 -68.440163 11.240586 -29.391104 -5.439959 -5.000000 45.000000 -17.531075 16.712397 31.007870 13.840267 14.609184 -0.781070 54.667217 10.820222 3.090894 28.482313 5.000000 30.269726 27.447880 -11.971864 10.938252 -6.570505 21.999334 -7.653646 41.243076 -6.313895 -6.087859 -7.923479 3.747759 -17.962147 -0.352023 -13.271497 -22.405285 50.076824 3.585537 4.686903 -14.256927 -13.068820 6.227992 
-4.396236 51.292789 -4.362779 -18.293144 1.352043 8.537601 41.832649 -5.324019 -4.407283 3.130551 0.839704 1.679862 -13.142591 3.952565 -0.836065 2.797653 10.817460 -38.922043 -14.463026 -9.433200 -0.489475 -70.521255 12.989478 -34.053936 -2.061005 -5.000000 45.000000 -20.307110 17.480309 29.485111 13.482694 14.872540 -0.794713 55.685532 14.512177 7.768795 26.779442 5.000000 28.890320 27.747519 -11.151427 11.933315 -5.757898 22.540377 -6.111099 42.507568 -5.767188 -5.845380 -8.141547 4.835474 -18.343685 -1.886621 -13.447921 -21.625502 52.079281 3.677538 5.167233 -14.095445 -12.550355 5.704555 
-4.723576 51.089809 -4.562909 -19.172205 0.886886 3.633283 41.698826 -6.394664 -5.467604 3.187895 0.664049 0.654385 -11.948618 4.674346 -0.896688 4.010782 11.614694 -41.781540 -16.564264 -9.618493 -0.499046 -73.040932 14.961246 -40.286789 0.000000 -5.000000 45.000000 -21.001842 16.395363 31.096270 12.596210 14.514002 -0.764391 59.024323 19.089605 14.860330 24.237253 5.000000 27.011812 27.463631 -9.418964 11.002270 -3.505077 22.867693 -3.160148 43.332962 -5.148683 -5.280572 -8.296732 6.392983 -18.776464 -3.545237 -13.592045 -20.469595 53.743534 3.815372 5.743420 -14.130396 -12.211929 4.627723 
-5.050279 50.890007 -4.756378 -20.049606 0.341634 -1.767605 41.491737 -7.609520 -6.586263 3.239215 0.458975 -0.478504 -10.732063 5.371567 -0.923383 5.315486 12.442078 -44.704224 -18.646006 -9.803785 -0.508611 -75.882103 16.727684 -45.000000 0.000000 -5.000000 45.000000 -21.304382 14.905870 33.478237 11.583479 14.006910 -0.738148 63.601955 23.406216 23.060362 21.355610 5.000000 24.841963 26.958719 -7.493952 9.577968 -0.868978 23.036173 0.210421 44.061993 -4.494763 -4.702417 -8.422919 8.052861 -19.235256 -5.234301 -13.685312 -19.202332 55.348698 3.954948 6.340511 -14.241211 -11.928783 3.413503 
-5.374475 50.706070 -4.946657 -20.737881 -0.319334 -7.734526 40.922523 -8.699392 -7.756248 3.188453 0.214788 -1.904288 -9.607928 5.848204 -0.906958 6.431861 13.054550 -47.881615 -20.318987 -10.135360 -0.525715 -78.381920 18.243160 -45.000000 0.000000 -5.000000 45.000000 -19.424473 13.306345 37.068825 10.515055 13.111523 -0.677794 69.272545 26.754238 31.754030 19.525644 5.000000 22.421576 26.321157 -6.780690 8.147143 1.717656 22.875418 3.559105 44.816788 -3.785707 -4.019040 -7.837525 9.649544 -19.898230 -6.932708 -13.577408 -18.312469 56.594379 3.964770 6.661335 -14.223345 -11.346972 2.230744 
-5.694911 50.545940 -5.132179 -21.138685 -1.105926 -14.553664 39.811146 -9.607096 -8.953214 2.982858 -0.097560 -3.779310 -8.614802 6.006238 -0.842431 7.296454 13.295826 -51.436722 -21.398474 -10.681481 -0.555656 -80.231155 19.648338 -45.000000 0.000000 -5.000000 45.000000 -14.388604 10.918320 42.424740 9.382643 11.611116 -0.586508 76.015907 28.786007 40.793121 19.419178 5.000000 19.854551 25.615145 -7.883489 6.768405 4.275845 22.300259 6.941377 45.547810 -2.994665 -3.222466 -6.322259 11.244382 -20.824259 -8.681006 -13.200558 -18.024467 57.368015 3.788954 6.563254 -13.923851 -10.290860 1.185093 
-6.015342 50.385807 -5.317701 -21.452440 -1.927953 -21.380123 38.711029 -10.530972 -10.148209 2.790131 -0.399515 -5.654409 -7.620228 6.165730 -0.767298 8.142205 13.590982 -54.992493 -22.468390 -11.217850 -0.583326 -82.234985 20.876284 -45.000000 0.000000 -5.000000 45.000000 -9.940353 7.826717 45.000000 8.268022 10.115856 -0.526425 83.138618 29.850965 45.000000 19.243729 5.000000 17.276489 24.986519 -9.033058 5.378186 6.763782 21.576078 10.254889 46.286541 -2.203599 -2.404684 -4.708469 12.795121 -21.789389 -10.407183 -12.804912 -17.729631 58.149895 3.632679 6.473819 -13.628652 -9.195264 0.122620 
-6.480131 50.289089 -5.430263 -21.935751 -3.525492 -29.348192 37.605999 -10.872092 -10.819470 2.515510 -0.535237 -7.158450 -7.434785 6.332796 -0.772930 8.380027 13.643689 -58.394608 -22.969847 -11.539667 -0.601858 -83.396812 22.497259 -45.000000 0.000000 -5.000000 45.000000 -8.548760 6.642734 45.000000 7.330221 8.080121 -0.398757 87.696960 29.318422 45.000000 23.730839 5.000000 17.780247 26.999531 -11.175720 5.382540 9.920754 20.839781 12.373515 46.808678 -1.822857 -1.973409 -0.494880 12.274423 -22.725794 -10.654243 -11.777049 -17.876846 58.121632 3.603393 6.455770 -13.414224 -7.554210 -0.500301 
-6.944912 50.192371 -5.542824 -22.195362 -5.180691 -37.317581 36.521633 -11.213722 -11.477344 2.256362 -0.680117 -8.662628 -7.240638 6.498394 -0.788160 8.607642 13.716306 -61.795815 -23.471411 -11.861485 -0.618470 -84.690750 24.046825 -45.000000 0.000000 -5.000000 45.000000 -7.131888 5.478942 45.000000 6.410598 6.040464 -0.301668 90.000000 28.515162 45.000000 28.193415 5.000000 18.106810 29.025463 -13.318372 5.308499 13.006498 19.980097 14.446209 47.346241 -1.442171 -1.577632 3.721269 11.729148 -23.585163 -10.914398 -10.735171 -17.996849 58.123768 3.582425 6.406182 -13.137535 -5.849593 -1.060687 
-7.438189 50.088005 -5.652614 -22.090918 -7.110413 -46.457924 35.288925 -11.285048 -11.508797 2.019314 -0.699011 -9.307130 -7.370473 6.622439 -0.816731 8.730076 13.761165 -64.450531 -23.624775 -11.598180 -0.604880 -86.059273 24.934160 -45.000000 0.000000 -5.000000 45.000000 -9.795955 1.921489 44.887096 6.071587 4.156106 -0.222753 90.000000 27.877052 45.000000 33.178787 5.000000 19.029169 33.753231 -12.532468 4.089333 16.042355 18.357916 15.142785 47.744854 -1.647464 -1.862201 10.366826 8.284748 -23.972145 -10.838800 -9.636922 -17.174992 58.122417 3.818280 6.868641 -12.888218 -3.941966 -1.547370 
-7.950458 49.978542 -5.760549 -21.567951 -9.155728 -56.406719 33.978115 -11.120375 -11.112807 1.809183 -0.650444 -9.375484 -7.698687 6.713117 -0.870823 8.777405 13.791069 -66.600044 -23.530226 -10.964293 -0.570253 -87.427254 25.422461 -45.000000 0.000000 -5.000000 45.000000 -14.824167 -3.602178 42.617825 6.134374 2.371374 -0.130366 90.000000 27.514057 45.000000 38.458843 5.000000 20.036877 40.086266 -9.522551 2.500242 19.057491 16.286898 14.848397 48.069710 -2.243458 -2.638321 18.548704 2.958896 -23.397388 -10.506578 -8.484581 -15.700971 58.144302 4.257750 7.633625 -12.688483 -1.869962 -1.949734 
-8.454466 49.859570 -5.904030 -20.532881 -11.056490 -66.465187 32.743778 -10.853304 -10.615344 1.634445 -0.485460 -9.326446 -7.979649 6.890677 -0.938076 8.817617 13.846437 -68.386292 -23.386589 -10.262138 -0.532250 -88.686394 25.830734 -45.000000 0.000000 -5.000000 45.000000 -19.116861 -9.015022 41.435711 6.249090 0.849948 -0.051359 90.000000 27.126135 45.000000 43.394688 5.000000 20.009357 47.037735 -6.111643 -0.971256 21.567089 14.197515 13.921779 48.637119 -3.044611 -3.736978 26.047863 -1.642199 -22.284899 -10.156041 -7.353374 -14.103086 58.179081 4.746185 8.503126 -12.224921 0.149895 -1.850945 
-8.925413 49.702545 -6.189674 -18.594051 -12.603055 -76.703018 31.815872 -10.129060 -9.669286 1.580994 0.106877 -8.750010 -8.008672 7.440975 -1.022557 8.845035 14.008590 -68.724213 -23.036232 -9.316172 -0.481846 -89.453194 25.977438 -45.000000 0.000000 -5.000000 45.000000 -21.896223 -12.593866 42.860394 6.600294 0.342753 -0.025141 90.000000 26.640253 45.000000 46.983315 5.000000 17.838310 57.361187 0.453268 -11.432236 22.161121 11.990767 10.848820 50.093807 -4.693473 -6.185025 30.261799 -4.310943 -22.067825 -9.683065 -6.196741 -12.066894 58.203621 5.410277 9.715008 -11.303567 1.849362 0.235247 
-9.396360 49.545525 -6.475328 -16.391836 -13.785701 -87.051338 30.896692 -9.387994 -8.726168 1.524942 0.709749 -8.183907 -8.028571 7.981603 -1.105668 8.863245 14.176868 -69.059517 -22.686817 -8.379951 -0.433556 -90.000000 26.149212 -45.000000 0.000000 -5.000000 45.000000 -24.855133 -16.065647 44.471390 6.951729 -0.164443 0.001080 90.000000 26.129120 45.000000 50.576561 5.000000 15.720452 67.484909 10.500159 -17.258617 22.862503 9.793206 7.773758 51.622189 -6.239828 -8.680532 34.522934 -6.889427 -21.592659 -9.203191 -5.063726 -10.021529 58.272675 6.084159 10.946179 -10.366693 3.596326 2.313019 
